<svg width="85" height="40" viewBox="0 0 85 40" fill="none" xmlns="http://www.w3.org/2000/svg">
<path d="M25.5625 17.3594C25.5521 17.401 25.4792 17.5781 25.3438 17.8906C25.2083 18.2031 24.9792 18.5885 24.6562 19.0469C24.3438 19.5052 23.9271 20.0104 23.4062 20.5625C22.8854 21.1146 22.2292 21.6562 21.4375 22.1875C20.6458 22.7083 19.7083 23.1875 18.625 23.625C17.5417 24.0521 16.2865 24.3802 14.8594 24.6094C13.901 24.7656 12.8958 24.8438 11.8438 24.8438C10.9688 24.8438 10.0885 24.7812 9.20312 24.6562C8.32812 24.5417 7.48438 24.3542 6.67188 24.0938C5.86979 23.8438 5.11979 23.5208 4.42188 23.125C3.72396 22.7292 3.11458 22.2604 2.59375 21.7188C2.08333 21.1771 1.67708 20.5573 1.375 19.8594C1.08333 19.151 0.9375 18.3646 0.9375 17.5C0.9375 15.9688 1.35938 14.651 2.20312 13.5469C3.05729 12.4427 4.31771 11.5833 5.98438 10.9688C5.39062 10.4167 4.94792 9.80729 4.65625 9.14062C4.36458 8.47396 4.21875 7.78125 4.21875 7.0625C4.21875 6.16667 4.42188 5.33854 4.82812 4.57812C5.24479 3.81771 5.81771 3.16146 6.54688 2.60938C7.27604 2.05729 8.14062 1.63021 9.14062 1.32812C10.151 1.01562 11.2552 0.859375 12.4531 0.859375C13.6615 0.859375 14.7135 0.973958 15.6094 1.20312C16.5156 1.43229 17.2865 1.71875 17.9219 2.0625C18.5677 2.40625 19.0938 2.78125 19.5 3.1875C19.9167 3.59375 20.2448 3.97396 20.4844 4.32812C20.724 4.68229 20.8906 4.98438 20.9844 5.23438C21.0781 5.47396 21.1302 5.60938 21.1406 5.64062C21.151 5.68229 21.1562 5.73958 21.1562 5.8125C21.1562 5.95833 21.099 6.09375 20.9844 6.21875C20.8802 6.33333 20.7396 6.39062 20.5625 6.39062C20.4375 6.39062 20.3229 6.35417 20.2188 6.28125C20.125 6.19792 20.0573 6.08854 20.0156 5.95312C20.0156 5.93229 19.974 5.82292 19.8906 5.625C19.8073 5.41667 19.6615 5.16667 19.4531 4.875C19.2448 4.58333 18.9583 4.27604 18.5938 3.95312C18.2396 3.61979 17.7812 3.3125 17.2188 3.03125C16.6562 2.73958 15.9844 2.5 15.2031 2.3125C14.4219 2.125 13.5052 2.03125 12.4531 2.03125C11.2448 2.03125 10.1927 2.18229 9.29688 2.48438C8.41146 2.78646 7.67708 3.18229 7.09375 3.67188C6.52083 4.15104 6.09375 4.6875 5.8125 5.28125C5.53125 5.875 5.39062 6.45833 5.39062 7.03125C5.39062 7.70833 5.55729 8.35417 5.89062 8.96875C6.22396 9.58333 6.70312 10.1094 7.32812 10.5469C7.89062 10.401 8.44271 10.2865 8.98438 10.2031C9.52604 10.1198 10.0365 10.0573 10.5156 10.0156C10.9948 9.96354 11.4271 9.93229 11.8125 9.92188C12.2083 9.90104 12.5312 9.89062 12.7812 9.89062C13.2396 9.89062 13.6615 9.92708 14.0469 10C14.4323 10.0625 14.7604 10.1615 15.0312 10.2969C15.3125 10.4219 15.5312 10.5885 15.6875 10.7969C15.8438 10.9948 15.9219 11.224 15.9219 11.4844C15.9219 11.7448 15.8438 11.9792 15.6875 12.1875C15.5312 12.3958 15.3125 12.5729 15.0312 12.7188C14.7604 12.8646 14.4323 12.9792 14.0469 13.0625C13.6615 13.1354 13.2396 13.1719 12.7812 13.1719C12.2812 13.1719 11.776 13.1406 11.2656 13.0781C10.7552 13.0156 10.2552 12.9271 9.76562 12.8125C9.28646 12.6979 8.82292 12.5573 8.375 12.3906C7.92708 12.2135 7.52083 12.0156 7.15625 11.7969C5.5 12.2969 4.24479 13.0208 3.39062 13.9688C2.53646 14.9062 2.10938 16.0677 2.10938 17.4531C2.10938 18.2031 2.23958 18.8802 2.5 19.4844C2.77083 20.0781 3.14062 20.6042 3.60938 21.0625C4.07812 21.5208 4.625 21.9167 5.25 22.25C5.88542 22.5729 6.5625 22.8385 7.28125 23.0469C8 23.2552 8.75 23.4115 9.53125 23.5156C10.3125 23.6094 11.0885 23.6562 11.8594 23.6562C12.3594 23.6562 12.8438 23.6406 13.3125 23.6094C13.7812 23.5677 14.2344 23.5104 14.6719 23.4375C15.9844 23.2292 17.1354 22.9271 18.125 22.5312C19.125 22.125 19.9844 21.6875 20.7031 21.2188C21.4323 20.7396 22.0365 20.2552 22.5156 19.7656C22.9948 19.2656 23.375 18.8125 23.6562 18.4062C23.9479 17.9896 24.151 17.651 24.2656 17.3906C24.3906 17.1302 24.4531 16.9948 24.4531 16.9844C24.4948 16.8594 24.5625 16.7656 24.6562 16.7031C24.7604 16.6302 24.875 16.5938 25 16.5938C25.1667 16.5938 25.3073 16.651 25.4219 16.7656C25.5365 16.8802 25.5938 17.0156 25.5938 17.1719C25.5938 17.2135 25.5833 17.276 25.5625 17.3594ZM14.7344 11.5C14.7344 11.4167 14.6667 11.3438 14.5312 11.2812C14.3958 11.2188 14.2188 11.1719 14 11.1406C13.7917 11.099 13.5521 11.0729 13.2812 11.0625C13.0104 11.0417 12.7344 11.0312 12.4531 11.0312C11.8385 11.0312 11.2552 11.0521 10.7031 11.0938C10.151 11.125 9.52083 11.2083 8.8125 11.3438C9.35417 11.5417 9.97396 11.7031 10.6719 11.8281C11.3802 11.9427 12.0938 12 12.8125 12C13.4688 12 13.9531 11.9479 14.2656 11.8438C14.5781 11.7396 14.7344 11.625 14.7344 11.5ZM30.7344 22.6094C30.8906 22.2969 31.0885 21.9115 31.3281 21.4531C31.5781 20.9844 31.8333 20.5156 32.0938 20.0469C32.3646 19.5781 32.625 19.1354 32.875 18.7188C33.1354 18.3021 33.3542 17.9844 33.5312 17.7656C33.8333 17.401 34.1458 17.1406 34.4688 16.9844C34.7917 16.8281 35.0885 16.75 35.3594 16.75C35.6302 16.75 35.8594 16.8073 36.0469 16.9219C36.2448 17.0365 36.4062 17.1927 36.5312 17.3906C36.6562 17.5781 36.75 17.8021 36.8125 18.0625C36.875 18.3125 36.9062 18.5833 36.9062 18.875C36.9062 19.0417 36.8958 19.2604 36.875 19.5312C36.8646 19.8021 36.849 20.0938 36.8281 20.4062C36.8177 20.7188 36.8021 21.0417 36.7812 21.375C36.7708 21.7083 36.7604 22.0208 36.75 22.3125C36.9062 22 37.0833 21.6562 37.2812 21.2812C37.4792 20.8958 37.6771 20.5156 37.875 20.1406C38.0833 19.7656 38.2812 19.4167 38.4688 19.0938C38.6562 18.7604 38.8281 18.4896 38.9844 18.2812C39.4323 17.6667 39.849 17.2552 40.2344 17.0469C40.6302 16.8385 40.9792 16.7344 41.2812 16.7344C41.6354 16.7344 41.9271 16.8021 42.1562 16.9375C42.3854 17.0625 42.5625 17.2292 42.6875 17.4375C42.8229 17.6354 42.9167 17.8594 42.9688 18.1094C43.0208 18.3594 43.0469 18.599 43.0469 18.8281C43.0469 19.1823 43.0208 19.5521 42.9688 19.9375C42.9167 20.3229 42.8906 20.7812 42.8906 21.3125C42.8906 21.5312 42.901 21.75 42.9219 21.9688C42.9427 22.1875 42.9844 22.3802 43.0469 22.5469C43.1198 22.7135 43.2292 22.849 43.375 22.9531C43.5208 23.0573 43.7188 23.1094 43.9688 23.1094C44.2396 23.1094 44.5052 23.0417 44.7656 22.9062C45.026 22.7604 45.276 22.5729 45.5156 22.3438C45.7552 22.1146 45.9792 21.8542 46.1875 21.5625C46.4062 21.2708 46.6042 20.9792 46.7812 20.6875C46.9583 20.3958 47.1146 20.1198 47.25 19.8594C47.3854 19.5885 47.4948 19.3594 47.5781 19.1719C47.6302 19.0573 47.7031 18.9688 47.7969 18.9062C47.8906 18.8438 47.9948 18.8125 48.1094 18.8125C48.2865 18.8125 48.4271 18.8802 48.5312 19.0156C48.6458 19.1406 48.7031 19.276 48.7031 19.4219C48.7031 19.4948 48.6875 19.5677 48.6562 19.6406C48.6146 19.724 48.5312 19.901 48.4062 20.1719C48.2812 20.4323 48.1146 20.7344 47.9062 21.0781C47.6979 21.4115 47.4531 21.7656 47.1719 22.1406C46.901 22.5156 46.599 22.8646 46.2656 23.1875C45.9323 23.5 45.5729 23.7604 45.1875 23.9688C44.8021 24.1667 44.3958 24.2656 43.9688 24.2656C43.5104 24.2656 43.1354 24.1823 42.8438 24.0156C42.5625 23.8594 42.3333 23.6458 42.1562 23.375C41.9896 23.1042 41.875 22.7917 41.8125 22.4375C41.75 22.0833 41.7188 21.7135 41.7188 21.3281C41.7188 20.8177 41.7448 20.349 41.7969 19.9219C41.849 19.4844 41.875 19.1458 41.875 18.9062C41.875 18.6458 41.849 18.4479 41.7969 18.3125C41.7552 18.1771 41.6979 18.0833 41.625 18.0312C41.5625 17.9688 41.5 17.9375 41.4375 17.9375C41.375 17.9271 41.3281 17.9219 41.2969 17.9219C41.0469 17.9219 40.7812 18.0625 40.5 18.3438C40.2292 18.6146 39.9479 18.9792 39.6562 19.4375C39.3646 19.8958 39.0625 20.4167 38.75 21C38.4479 21.5833 38.1406 22.1771 37.8281 22.7812C37.651 23.1146 37.5 23.3906 37.375 23.6094C37.2604 23.8281 37.1458 24 37.0312 24.125C36.9271 24.25 36.8229 24.3385 36.7188 24.3906C36.6146 24.4427 36.5 24.4688 36.375 24.4688C36.1042 24.4688 35.8958 24.375 35.75 24.1875C35.6146 24 35.5469 23.7552 35.5469 23.4531C35.5469 23.2969 35.5521 23.0885 35.5625 22.8281C35.5729 22.5677 35.5833 22.2812 35.5938 21.9688C35.6042 21.6562 35.6198 21.3333 35.6406 21C35.6615 20.6667 35.6771 20.349 35.6875 20.0469C35.6979 19.7344 35.7083 19.4583 35.7188 19.2188C35.7292 18.9792 35.7344 18.7969 35.7344 18.6719C35.7344 18.401 35.6875 18.2083 35.5938 18.0938C35.5 17.9688 35.3906 17.9062 35.2656 17.9062C35.151 17.9062 35.0208 17.9479 34.875 18.0312C34.7396 18.1146 34.5781 18.276 34.3906 18.5156C34.2448 18.7031 34.0573 18.9792 33.8281 19.3438C33.6094 19.6979 33.375 20.0938 33.125 20.5312C32.875 20.9688 32.625 21.4167 32.375 21.875C32.1354 22.3333 31.9271 22.7448 31.75 23.1094C31.5312 23.5469 31.3125 23.8438 31.0938 24C30.875 24.1667 30.6615 24.25 30.4531 24.25C30.151 24.25 29.9271 24.1615 29.7812 23.9844C29.6354 23.7969 29.5625 23.5521 29.5625 23.25C29.5625 23.2188 29.5677 23.0312 29.5781 22.6875C29.599 22.3438 29.6198 21.9271 29.6406 21.4375C29.6615 20.9375 29.6823 20.4062 29.7031 19.8438C29.7344 19.2812 29.7604 18.7552 29.7812 18.2656C29.7917 18.0052 29.7812 17.7656 29.75 17.5469C29.7188 17.3281 29.6771 17.1979 29.625 17.1562C29.5417 17.1771 29.375 17.3698 29.125 17.7344C28.8854 18.099 28.5781 18.7344 28.2031 19.6406C28.151 19.7552 28.0729 19.8438 27.9688 19.9062C27.8646 19.9688 27.7552 20 27.6406 20C27.4635 20 27.3229 19.9427 27.2188 19.8281C27.1146 19.7031 27.0625 19.5625 27.0625 19.4062C27.0625 19.3333 27.0781 19.2552 27.1094 19.1719C27.5781 18.0573 28.026 17.2396 28.4531 16.7188C28.8802 16.1875 29.2969 15.9219 29.7031 15.9219C29.9427 15.9219 30.1406 15.9792 30.2969 16.0938C30.4635 16.1979 30.5938 16.3385 30.6875 16.5156C30.7812 16.6823 30.849 16.875 30.8906 17.0938C30.9323 17.3125 30.9531 17.526 30.9531 17.7344C30.9531 18.6615 30.9271 19.5104 30.875 20.2812C30.8333 21.0521 30.7865 21.8281 30.7344 22.6094ZM55.6094 19.6406C55.6094 20.599 55.4375 21.4167 55.0938 22.0938C54.75 22.7708 54.3281 23.2865 53.8281 23.6406H53.8906C54.5052 23.6406 55.0625 23.5052 55.5625 23.2344C56.0729 22.9531 56.5312 22.599 56.9375 22.1719C57.3438 21.7344 57.7083 21.25 58.0312 20.7188C58.3542 20.1875 58.6406 19.6719 58.8906 19.1719C58.9427 19.0573 59.0156 18.9688 59.1094 18.9062C59.2135 18.8438 59.3229 18.8125 59.4375 18.8125C59.6146 18.8125 59.7552 18.875 59.8594 19C59.9635 19.125 60.0156 19.2604 60.0156 19.4062C60.0156 19.4896 60 19.5677 59.9688 19.6406C59.6979 20.2448 59.375 20.8542 59 21.4688C58.625 22.0729 58.1875 22.6198 57.6875 23.1094C57.1875 23.599 56.625 23.9948 56 24.2969C55.375 24.6094 54.6823 24.7656 53.9219 24.7656C53.3698 24.7656 52.8333 24.6771 52.3125 24.5C51.7917 24.3333 51.3333 24.0677 50.9375 23.7031C50.7917 23.5885 50.6667 23.4688 50.5625 23.3438C50.4583 23.2083 50.375 23.0833 50.3125 22.9688C50.2917 22.9479 50.2812 22.9271 50.2812 22.9062C50.2188 22.8125 50.1875 22.7135 50.1875 22.6094C50.1875 22.474 50.2344 22.349 50.3281 22.2344C50.3385 22.2135 50.349 22.2031 50.3594 22.2031C50.3698 22.1927 50.3802 22.1823 50.3906 22.1719C50.4948 22.0781 50.6094 22.026 50.7344 22.0156H50.7812C50.8333 22.0156 50.8698 22.0208 50.8906 22.0312C50.901 22.0312 50.9062 22.0365 50.9062 22.0469C50.9167 22.0469 50.9271 22.0469 50.9375 22.0469C50.9688 22.0469 51.0052 22.0573 51.0469 22.0781C51.0573 22.0885 51.0677 22.0938 51.0781 22.0938C51.1719 22.1562 51.25 22.2344 51.3125 22.3281C51.3854 22.4531 51.4688 22.5677 51.5625 22.6719C51.6458 22.7552 51.7448 22.8333 51.8594 22.9062C51.974 22.9688 52.1042 23 52.25 23C52.5104 23 52.7708 22.9219 53.0312 22.7656C53.2917 22.6094 53.526 22.3854 53.7344 22.0938C53.9427 21.8021 54.1094 21.4479 54.2344 21.0312C54.3698 20.6146 54.4375 20.151 54.4375 19.6406C54.4375 19.2656 54.3958 18.9479 54.3125 18.6875C54.2396 18.4167 54.1406 18.1979 54.0156 18.0312C53.901 17.8646 53.776 17.7448 53.6406 17.6719C53.5052 17.5885 53.375 17.5469 53.25 17.5469C52.9688 17.5469 52.6823 17.6927 52.3906 17.9844C52.1094 18.276 51.8281 18.6458 51.5469 19.0938C51.2656 19.5417 50.9844 20.0365 50.7031 20.5781C50.4323 21.1198 50.1562 21.6458 49.875 22.1562C49.8542 23.8438 49.8229 25.4531 49.7812 26.9844C49.75 28.5156 49.6875 29.9375 49.5938 31.25C49.5104 32.5625 49.3906 33.75 49.2344 34.8125C49.0781 35.875 48.8646 36.7812 48.5938 37.5312C48.3229 38.2917 47.9896 38.875 47.5938 39.2812C47.1979 39.6875 46.7135 39.8906 46.1406 39.8906C45.9635 39.8906 45.7604 39.8542 45.5312 39.7812C45.3021 39.7083 45.0885 39.5573 44.8906 39.3281C44.6927 39.1094 44.526 38.7917 44.3906 38.375C44.2552 37.9583 44.1875 37.401 44.1875 36.7031C44.1875 35.8177 44.2969 34.7917 44.5156 33.625C44.7344 32.4583 45.0469 31.2188 45.4531 29.9062C45.849 28.6042 46.3229 27.2656 46.875 25.8906C47.4271 24.5156 48.0365 23.1771 48.7031 21.875C48.7031 21.5104 48.7031 21.151 48.7031 20.7969C48.7135 20.4427 48.7188 20.099 48.7188 19.7656C48.5833 19.9219 48.4219 20 48.2344 20C48.0573 20 47.9167 19.9375 47.8125 19.8125C47.7083 19.6875 47.6562 19.5521 47.6562 19.4062C47.6562 19.3333 47.6719 19.2552 47.7031 19.1719C47.9531 18.599 48.1458 18.0573 48.2812 17.5469C48.4167 17.026 48.5156 16.5729 48.5781 16.1875C48.651 15.7917 48.6927 15.4792 48.7031 15.25C48.7135 15.0208 48.7188 14.901 48.7188 14.8906C48.7188 14.7344 48.776 14.599 48.8906 14.4844C49.0052 14.3698 49.1458 14.3125 49.3125 14.3125C49.4688 14.3125 49.6042 14.3698 49.7188 14.4844C49.8333 14.5885 49.8906 14.724 49.8906 14.8906V19.6875C50.1302 19.2812 50.3698 18.8802 50.6094 18.4844C50.849 18.0885 51.099 17.7344 51.3594 17.4219C51.6302 17.1094 51.9167 16.8594 52.2188 16.6719C52.5312 16.474 52.875 16.375 53.25 16.375C53.6042 16.375 53.9271 16.4583 54.2188 16.625C54.5104 16.7917 54.7604 17.0208 54.9688 17.3125C55.1771 17.6042 55.3333 17.9531 55.4375 18.3594C55.5521 18.7552 55.6094 19.1823 55.6094 19.6406ZM48.6719 24.6562C48.1615 25.8021 47.6979 26.9531 47.2812 28.1094C46.875 29.2656 46.5312 30.3802 46.25 31.4531C45.9583 32.526 45.7344 33.5312 45.5781 34.4688C45.4219 35.4062 45.3438 36.2292 45.3438 36.9375C45.3438 37.1146 45.3542 37.3073 45.375 37.5156C45.3958 37.724 45.4375 37.9167 45.5 38.0938C45.5625 38.2708 45.651 38.4167 45.7656 38.5312C45.8802 38.6562 46.0312 38.7188 46.2188 38.7188C46.5625 38.7188 46.8594 38.5 47.1094 38.0625C47.3594 37.6354 47.5677 37.0521 47.7344 36.3125C47.9115 35.5833 48.0573 34.7396 48.1719 33.7812C48.2865 32.8333 48.375 31.8385 48.4375 30.7969C48.5104 29.7552 48.5625 28.7031 48.5938 27.6406C48.625 26.5885 48.651 25.5938 48.6719 24.6562ZM61.4531 11.7344C61.4531 12.1302 61.3125 12.4688 61.0312 12.75C60.7604 13.0208 60.4271 13.1562 60.0312 13.1562C59.6354 13.1562 59.2969 13.0208 59.0156 12.75C58.7448 12.4688 58.6094 12.1302 58.6094 11.7344C58.6094 11.5365 58.6458 11.3542 58.7188 11.1875C58.7917 11.0104 58.8906 10.8594 59.0156 10.7344C59.151 10.599 59.3021 10.4948 59.4688 10.4219C59.6458 10.349 59.8333 10.3125 60.0312 10.3125C60.2292 10.3125 60.4115 10.349 60.5781 10.4219C60.7552 10.4948 60.9062 10.599 61.0312 10.7344C61.1667 10.8594 61.2708 11.0104 61.3438 11.1875C61.4167 11.3542 61.4531 11.5365 61.4531 11.7344ZM58.9219 20.8906C58.9219 19.3906 59.0156 17.8958 59.2031 16.4062C59.224 16.2604 59.2865 16.1354 59.3906 16.0312C59.5052 15.9167 59.651 15.8594 59.8281 15.8594C59.9844 15.8594 60.1146 15.9219 60.2188 16.0469C60.3229 16.1615 60.375 16.2969 60.375 16.4531C60.375 16.5156 60.3594 16.7031 60.3281 17.0156C60.3073 17.3281 60.276 17.7031 60.2344 18.1406C60.2031 18.5677 60.1719 19.026 60.1406 19.5156C60.1198 19.9948 60.1094 20.4375 60.1094 20.8438C60.1094 21.3958 60.1615 21.8438 60.2656 22.1875C60.3802 22.5208 60.5208 22.7812 60.6875 22.9688C60.8646 23.1562 61.0469 23.2812 61.2344 23.3438C61.4323 23.4062 61.6198 23.4375 61.7969 23.4375C62.0885 23.4375 62.3906 23.3333 62.7031 23.125C63.0156 22.9167 63.3333 22.625 63.6562 22.25C63.9896 21.875 64.3229 21.4271 64.6562 20.9062C64.9896 20.375 65.3177 19.7865 65.6406 19.1406C65.6927 19.0365 65.7656 18.9583 65.8594 18.9062C65.9531 18.8438 66.0573 18.8125 66.1719 18.8125C66.3385 18.8125 66.474 18.875 66.5781 19C66.6927 19.125 66.75 19.2604 66.75 19.4062C66.75 19.5104 66.7292 19.599 66.6875 19.6719C66.5625 19.9115 66.4062 20.2031 66.2188 20.5469C66.0312 20.8906 65.8177 21.2448 65.5781 21.6094C65.3385 21.974 65.0729 22.3385 64.7812 22.7031C64.5 23.0573 64.1979 23.3802 63.875 23.6719C63.5521 23.9531 63.2135 24.1823 62.8594 24.3594C62.5052 24.5365 62.1458 24.625 61.7812 24.625C61.3125 24.625 60.901 24.526 60.5469 24.3281C60.1927 24.1302 59.8906 23.8646 59.6406 23.5312C59.401 23.1979 59.2188 22.8073 59.0938 22.3594C58.9792 21.901 58.9219 21.4115 58.9219 20.8906ZM60.5781 11.7344C60.5781 11.5885 60.5208 11.4635 60.4062 11.3594C60.3021 11.2448 60.1771 11.1875 60.0312 11.1875C59.8854 11.1875 59.7604 11.2448 59.6562 11.3594C59.5521 11.4635 59.5 11.5885 59.5 11.7344C59.5 11.8802 59.5521 12.0052 59.6562 12.1094C59.7604 12.2135 59.8854 12.2656 60.0312 12.2656C60.1771 12.2656 60.3021 12.2135 60.4062 12.1094C60.5208 12.0052 60.5781 11.8802 60.5781 11.7344ZM67.2656 17.5781C67.224 17.8594 67.1719 18.125 67.1094 18.375C67.0469 18.6146 66.9844 18.8281 66.9219 19.0156C66.8698 19.1927 66.8229 19.3385 66.7812 19.4531C66.7396 19.5677 66.7135 19.6302 66.7031 19.6406C66.599 19.8802 66.4167 20 66.1562 20C66.0104 20 65.875 19.9479 65.75 19.8438C65.625 19.7292 65.5625 19.5885 65.5625 19.4219C65.5625 19.3594 65.5729 19.3125 65.5938 19.2812C65.6146 19.25 65.6458 19.1875 65.6875 19.0938C65.7292 19 65.7812 18.8438 65.8438 18.625C65.9062 18.4062 65.9844 18.0677 66.0781 17.6094C65.901 17.6094 65.7188 17.6042 65.5312 17.5938C65.3438 17.5833 65.1719 17.5469 65.0156 17.4844C64.849 17.4219 64.7135 17.3229 64.6094 17.1875C64.5052 17.0521 64.4531 16.8646 64.4531 16.625C64.4531 16.4479 64.5052 16.2083 64.6094 15.9062C64.7031 15.6042 64.8333 15.3073 65 15.0156C65.1667 14.724 65.3542 14.474 65.5625 14.2656C65.7708 14.0469 65.9792 13.9375 66.1875 13.9375C66.4271 13.9375 66.6198 14.026 66.7656 14.2031C66.9219 14.3802 67.0417 14.599 67.125 14.8594C67.2083 15.1094 67.2656 15.375 67.2969 15.6562C67.3385 15.9375 67.3594 16.1823 67.3594 16.3906C67.5365 16.3906 67.7083 16.3906 67.875 16.3906C68.0521 16.3802 68.2188 16.375 68.375 16.375C68.9688 16.375 69.4219 16.5052 69.7344 16.7656C70.0469 17.026 70.2031 17.4531 70.2031 18.0469C70.2031 18.2865 70.1875 18.5365 70.1562 18.7969C70.125 19.0573 70.0885 19.3281 70.0469 19.6094C70.0052 19.8802 69.9688 20.151 69.9375 20.4219C69.9062 20.6927 69.8906 20.9583 69.8906 21.2188C69.8906 21.5938 69.9427 21.9062 70.0469 22.1562C70.151 22.3958 70.2812 22.5885 70.4375 22.7344C70.5938 22.8802 70.7604 22.9844 70.9375 23.0469C71.1146 23.099 71.276 23.125 71.4219 23.125C71.8698 23.125 72.2917 22.9792 72.6875 22.6875C73.0833 22.3958 73.4479 22.0469 73.7812 21.6406C74.1146 21.224 74.4115 20.7865 74.6719 20.3281C74.9427 19.8698 75.1667 19.4688 75.3438 19.125C75.3958 19.0312 75.4688 18.9583 75.5625 18.9062C75.6562 18.8542 75.7552 18.8281 75.8594 18.8281C76.0469 18.8281 76.1927 18.8906 76.2969 19.0156C76.401 19.1302 76.4531 19.2604 76.4531 19.4062C76.4531 19.5104 76.4323 19.6042 76.3906 19.6875C76.151 20.1146 75.8698 20.599 75.5469 21.1406C75.2344 21.6719 74.875 22.1719 74.4688 22.6406C74.0625 23.1094 73.6042 23.5052 73.0938 23.8281C72.5938 24.151 72.0417 24.3125 71.4375 24.3125C71.0625 24.3125 70.7083 24.2396 70.375 24.0938C70.0417 23.9583 69.75 23.7604 69.5 23.5C69.2604 23.2292 69.0677 22.901 68.9219 22.5156C68.776 22.1198 68.7031 21.6771 68.7031 21.1875C68.7031 20.6667 68.7552 20.151 68.8594 19.6406C68.9635 19.1198 69.0156 18.625 69.0156 18.1562C69.0156 17.9583 68.9688 17.8125 68.875 17.7188C68.7917 17.6146 68.599 17.5625 68.2969 17.5625C68.151 17.5625 67.9896 17.5625 67.8125 17.5625C67.6458 17.5625 67.4635 17.5677 67.2656 17.5781ZM66.2188 16.4219C66.2188 16.349 66.2135 16.2552 66.2031 16.1406C66.2031 16.0156 66.1927 15.8958 66.1719 15.7812C66.1615 15.6667 66.1406 15.5677 66.1094 15.4844C66.0885 15.401 66.0625 15.3594 66.0312 15.3594C66 15.3594 65.9583 15.401 65.9062 15.4844C65.8646 15.5573 65.8177 15.651 65.7656 15.7656C65.7135 15.8698 65.6667 15.9844 65.625 16.1094C65.5833 16.2344 65.5521 16.3385 65.5312 16.4219H66.2188ZM77.2188 22.2812C77.4375 22.5833 77.7188 22.8281 78.0625 23.0156C78.4062 23.1927 78.8281 23.2812 79.3281 23.2812C79.8385 23.2812 80.3021 23.1615 80.7188 22.9219C81.1354 22.6719 81.5156 22.349 81.8594 21.9531C82.2031 21.5573 82.5104 21.1146 82.7812 20.625C83.0521 20.1354 83.2969 19.6458 83.5156 19.1562C83.5677 19.0417 83.6406 18.9583 83.7344 18.9062C83.8281 18.8438 83.9323 18.8125 84.0469 18.8125C84.224 18.8125 84.3646 18.875 84.4688 19C84.5833 19.125 84.6406 19.2604 84.6406 19.4062C84.6406 19.4583 84.6354 19.5052 84.625 19.5469C84.6146 19.5781 84.599 19.6146 84.5781 19.6562C83.8594 21.2396 83.0729 22.4323 82.2188 23.2344C81.375 24.0365 80.4167 24.4479 79.3438 24.4688C78.6562 24.4688 78.0625 24.3333 77.5625 24.0625C77.0625 23.8021 76.651 23.4635 76.3281 23.0469C76.0052 22.6198 75.7656 22.1406 75.6094 21.6094C75.4531 21.0781 75.375 20.5469 75.375 20.0156C75.375 19.4844 75.4375 18.9948 75.5625 18.5469C75.6979 18.099 75.8854 17.7083 76.125 17.375C76.375 17.0417 76.6667 16.7812 77 16.5938C77.3438 16.4062 77.7188 16.3125 78.125 16.3125C78.3646 16.3125 78.599 16.3646 78.8281 16.4688C79.0677 16.5625 79.2812 16.7031 79.4688 16.8906C79.6562 17.0677 79.8073 17.2865 79.9219 17.5469C80.0365 17.8073 80.0938 18.1042 80.0938 18.4375C80.0938 18.8646 80.0208 19.2656 79.875 19.6406C79.7292 20.0156 79.526 20.3646 79.2656 20.6875C79.0156 21.0104 78.7135 21.3073 78.3594 21.5781C78.0052 21.849 77.625 22.0833 77.2188 22.2812ZM76.75 21.2656C77.0729 21.1302 77.3646 20.9583 77.625 20.75C77.8958 20.5417 78.125 20.3125 78.3125 20.0625C78.5 19.8125 78.6458 19.5521 78.75 19.2812C78.8542 19 78.9062 18.7188 78.9062 18.4375C78.9062 18.125 78.8281 17.8906 78.6719 17.7344C78.5156 17.5677 78.3333 17.4844 78.125 17.4844C77.8438 17.4844 77.6042 17.5625 77.4062 17.7188C77.2083 17.875 77.0469 18.0781 76.9219 18.3281C76.7969 18.5781 76.7031 18.8594 76.6406 19.1719C76.5885 19.474 76.5625 19.776 76.5625 20.0781C76.5625 20.2656 76.5781 20.4635 76.6094 20.6719C76.651 20.8802 76.6979 21.0781 76.75 21.2656Z" fill="white"/>
</svg>
